<svg width="22" height="22" viewBox="0 0 22 22" fill="none" xmlns="http://www.w3.org/2000/svg">
<path fill-rule="evenodd" clip-rule="evenodd" d="M0 9.64602C0 4.37423 4.24769 -0.000244141 9.61319 -0.000244141C14.8669 -0.000244141 19.1146 4.37423 19.1146 9.64602C19.1146 12.0525 18.2295 14.2486 16.7677 15.9249C16.7685 15.9256 16.7694 15.9262 16.7703 15.9269L21.5769 20.1892C22.024 20.6379 22.1358 21.1987 21.6887 21.6474C21.3533 22.096 20.6827 22.096 20.2355 21.7595L15.4289 17.4972C15.3608 17.4459 15.303 17.3868 15.2552 17.3218C13.6782 18.49 11.7271 19.1801 9.61319 19.1801C4.35947 19.1801 0 14.9178 0 9.64602ZM1.7885 9.64602C1.7885 13.9083 5.25372 17.4976 9.61319 17.4976C13.8609 17.4976 17.3261 13.9083 17.4379 9.64602C17.4379 5.27155 13.9727 1.79441 9.61319 1.79441C5.25372 1.79441 1.7885 5.27155 1.7885 9.64602Z" fill="white"/>
</svg>
